<svg width="109" height="40" viewBox="0 0 109 40" fill="none" xmlns="http://www.w3.org/2000/svg">
<path d="M54.5666 22.176C55.3106 22.176 55.9786 22.072 56.5706 21.864C57.1626 21.656 57.6626 21.368 58.0706 21C58.4866 20.632 58.8026 20.2 59.0186 19.704C59.2426 19.2 59.3546 18.652 59.3546 18.06C59.3546 16.756 58.9546 15.752 58.1546 15.048C57.3546 14.344 56.1586 13.992 54.5666 13.992H51.4106V22.176H54.5666ZM54.5666 13.02C56.5586 13.02 58.0586 13.456 59.0666 14.328C60.0826 15.2 60.5906 16.444 60.5906 18.06C60.5906 18.804 60.4506 19.488 60.1706 20.112C59.8906 20.736 59.4906 21.276 58.9706 21.732C58.4506 22.18 57.8186 22.532 57.0746 22.788C56.3306 23.036 55.4946 23.16 54.5666 23.16H51.4106V30H50.1746V13.02H54.5666ZM74.3576 18.06L67.4936 33.84C67.4456 33.952 67.3816 34.044 67.3016 34.116C67.2296 34.188 67.1216 34.224 66.9776 34.224H66.1616L68.2616 29.556L63.2096 18.06H64.1576C64.2776 18.06 64.3736 18.092 64.4456 18.156C64.5176 18.212 64.5656 18.276 64.5896 18.348L68.6096 27.636C68.6576 27.756 68.6976 27.88 68.7296 28.008C68.7696 28.128 68.8056 28.252 68.8376 28.38C68.8776 28.252 68.9176 28.128 68.9576 28.008C69.0056 27.88 69.0536 27.756 69.1016 27.636L73.0736 18.348C73.1136 18.26 73.1696 18.192 73.2416 18.144C73.3136 18.088 73.3936 18.06 73.4816 18.06H74.3576ZM79.0485 20.94C79.2325 20.452 79.4405 20.02 79.6725 19.644C79.9125 19.26 80.1845 18.936 80.4885 18.672C80.8005 18.408 81.1445 18.208 81.5205 18.072C81.9045 17.928 82.3285 17.856 82.7925 17.856C83.0405 17.856 83.2845 17.88 83.5245 17.928C83.7645 17.968 83.9765 18.044 84.1605 18.156L84.0645 18.948C84.0245 19.076 83.9485 19.14 83.8365 19.14C83.7405 19.14 83.5925 19.112 83.3925 19.056C83.2005 19 82.9445 18.972 82.6245 18.972C82.1605 18.972 81.7485 19.044 81.3885 19.188C81.0365 19.324 80.7165 19.532 80.4285 19.812C80.1485 20.092 79.9005 20.44 79.6845 20.856C79.4765 21.264 79.2845 21.736 79.1085 22.272V30H77.9565V18.06H78.5685C78.7045 18.06 78.8005 18.088 78.8565 18.144C78.9125 18.2 78.9485 18.296 78.9645 18.432L79.0485 20.94ZM88.7329 20.94C88.9169 20.452 89.1249 20.02 89.3569 19.644C89.5969 19.26 89.8689 18.936 90.1729 18.672C90.4849 18.408 90.8289 18.208 91.2049 18.072C91.5889 17.928 92.0129 17.856 92.4769 17.856C92.7249 17.856 92.9689 17.88 93.2089 17.928C93.4489 17.968 93.6609 18.044 93.8449 18.156L93.7489 18.948C93.7089 19.076 93.6329 19.14 93.5209 19.14C93.4249 19.14 93.2769 19.112 93.0769 19.056C92.8849 19 92.6289 18.972 92.3089 18.972C91.8449 18.972 91.4329 19.044 91.0729 19.188C90.7209 19.324 90.4009 19.532 90.1129 19.812C89.8329 20.092 89.5849 20.44 89.3689 20.856C89.1609 21.264 88.9689 21.736 88.7929 22.272V30H87.6409V18.06H88.2529C88.3889 18.06 88.4849 18.088 88.5409 18.144C88.5969 18.2 88.6329 18.296 88.6489 18.432L88.7329 20.94ZM103.751 24.228C102.615 24.268 101.635 24.36 100.811 24.504C99.9954 24.64 99.3194 24.828 98.7834 25.068C98.2554 25.308 97.8634 25.596 97.6074 25.932C97.3514 26.26 97.2234 26.636 97.2234 27.06C97.2234 27.46 97.2874 27.808 97.4154 28.104C97.5514 28.392 97.7274 28.632 97.9434 28.824C98.1674 29.008 98.4234 29.144 98.7114 29.232C98.9994 29.32 99.2994 29.364 99.6114 29.364C100.075 29.364 100.499 29.316 100.883 29.22C101.275 29.116 101.635 28.976 101.963 28.8C102.299 28.616 102.611 28.4 102.899 28.152C103.187 27.904 103.471 27.636 103.751 27.348V24.228ZM96.7314 19.752C97.3554 19.128 98.0114 18.656 98.6994 18.336C99.3874 18.016 100.167 17.856 101.039 17.856C101.679 17.856 102.239 17.96 102.719 18.168C103.199 18.368 103.595 18.66 103.907 19.044C104.227 19.42 104.467 19.88 104.627 20.424C104.787 20.96 104.867 21.56 104.867 22.224V30H104.411C104.171 30 104.023 29.888 103.967 29.664L103.799 28.128C103.471 28.448 103.143 28.736 102.815 28.992C102.495 29.248 102.159 29.464 101.807 29.64C101.455 29.816 101.075 29.952 100.667 30.048C100.259 30.144 99.8114 30.192 99.3234 30.192C98.9154 30.192 98.5194 30.132 98.1354 30.012C97.7514 29.892 97.4074 29.708 97.1034 29.46C96.8074 29.212 96.5674 28.896 96.3834 28.512C96.2074 28.12 96.1194 27.652 96.1194 27.108C96.1194 26.604 96.2634 26.136 96.5514 25.704C96.8394 25.272 97.2914 24.896 97.9074 24.576C98.5234 24.256 99.3114 24 100.271 23.808C101.239 23.616 102.399 23.504 103.751 23.472V22.224C103.751 21.12 103.511 20.272 103.031 19.68C102.559 19.08 101.855 18.78 100.919 18.78C100.343 18.78 99.8514 18.86 99.4434 19.02C99.0434 19.18 98.7034 19.356 98.4234 19.548C98.1434 19.74 97.9154 19.916 97.7394 20.076C97.5634 20.236 97.4154 20.316 97.2954 20.316C97.2074 20.316 97.1354 20.296 97.0794 20.256C97.0234 20.216 96.9754 20.164 96.9354 20.1L96.7314 19.752Z" fill="#3C3C3C"/>
<circle cx="20" cy="20" r="20" fill="#F46363"/>
<path d="M15.1378 6C18.4137 6.00003 22.2068 5.99997 25.6551 8.01693C30.6416 10.9336 30.9755 16.8783 22.0344 20.2888C14.9832 22.9784 15.1378 24.4914 15.1378 26.8448C15.1378 31.7198 15.1378 32.5603 15.1378 34.5776" stroke="white" stroke-width="1.5" stroke-linecap="round"/>
</svg>
