<svg width="109" height="39" viewBox="0 0 109 39" fill="none" xmlns="http://www.w3.org/2000/svg">
<path d="M54.9386 20.9192C55.6026 20.9192 56.1866 20.8312 56.6906 20.6552C57.2026 20.4792 57.6306 20.2352 57.9746 19.9232C58.3266 19.6032 58.5906 19.2232 58.7666 18.7832C58.9426 18.3432 59.0306 17.8592 59.0306 17.3312C59.0306 16.2352 58.6906 15.3792 58.0106 14.7632C57.3386 14.1472 56.3146 13.8392 54.9386 13.8392H52.1786V20.9192H54.9386ZM54.9386 12.0032C56.0266 12.0032 56.9706 12.1312 57.7706 12.3872C58.5786 12.6352 59.2466 12.9912 59.7746 13.4552C60.3026 13.9192 60.6946 14.4792 60.9506 15.1352C61.2146 15.7912 61.3466 16.5232 61.3466 17.3312C61.3466 18.1312 61.2066 18.8632 60.9266 19.5272C60.6466 20.1912 60.2346 20.7632 59.6906 21.2432C59.1546 21.7232 58.4866 22.0992 57.6866 22.3712C56.8946 22.6352 55.9786 22.7672 54.9386 22.7672H52.1786V29.1992H49.8626V12.0032H54.9386ZM75.4607 17.0432L68.6807 32.7872C68.6087 32.9472 68.5167 33.0752 68.4047 33.1712C68.3007 33.2672 68.1367 33.3152 67.9127 33.3152H66.3287L68.5487 28.4912L63.5327 17.0432H65.3807C65.5647 17.0432 65.7087 17.0912 65.8127 17.1872C65.9247 17.2752 66.0007 17.3752 66.0407 17.4872L69.2927 25.1432C69.4207 25.4792 69.5287 25.8312 69.6167 26.1992C69.7287 25.8232 69.8487 25.4672 69.9767 25.1312L73.1327 17.4872C73.1807 17.3592 73.2607 17.2552 73.3727 17.1752C73.4927 17.0872 73.6247 17.0432 73.7687 17.0432H75.4607ZM80.5757 19.4792C80.9597 18.6472 81.4317 17.9992 81.9917 17.5352C82.5517 17.0632 83.2357 16.8272 84.0437 16.8272C84.2997 16.8272 84.5437 16.8552 84.7757 16.9112C85.0157 16.9672 85.2277 17.0552 85.4117 17.1752L85.2557 18.7712C85.2077 18.9712 85.0877 19.0712 84.8957 19.0712C84.7837 19.0712 84.6197 19.0472 84.4037 18.9992C84.1877 18.9512 83.9437 18.9272 83.6717 18.9272C83.2877 18.9272 82.9437 18.9832 82.6397 19.0952C82.3437 19.2072 82.0757 19.3752 81.8357 19.5992C81.6037 19.8152 81.3917 20.0872 81.1997 20.4152C81.0157 20.7352 80.8477 21.1032 80.6957 21.5192V29.1992H78.5477V17.0432H79.7717C80.0037 17.0432 80.1637 17.0872 80.2517 17.1752C80.3397 17.2632 80.3997 17.4152 80.4317 17.6312L80.5757 19.4792ZM90.5179 19.4792C90.9019 18.6472 91.3739 17.9992 91.9339 17.5352C92.4939 17.0632 93.1779 16.8272 93.9859 16.8272C94.2419 16.8272 94.4859 16.8552 94.7179 16.9112C94.9579 16.9672 95.1699 17.0552 95.3539 17.1752L95.1979 18.7712C95.1499 18.9712 95.0299 19.0712 94.8379 19.0712C94.7259 19.0712 94.5619 19.0472 94.3459 18.9992C94.1299 18.9512 93.8859 18.9272 93.6139 18.9272C93.2299 18.9272 92.8859 18.9832 92.5819 19.0952C92.2859 19.2072 92.0179 19.3752 91.7779 19.5992C91.5459 19.8152 91.3339 20.0872 91.1419 20.4152C90.9579 20.7352 90.7899 21.1032 90.6379 21.5192V29.1992H88.4899V17.0432H89.7139C89.9459 17.0432 90.1059 17.0872 90.1939 17.1752C90.2819 17.2632 90.3419 17.4152 90.3739 17.6312L90.5179 19.4792ZM104.833 23.7272C103.849 23.7592 103.009 23.8392 102.313 23.9672C101.625 24.0872 101.061 24.2472 100.621 24.4472C100.189 24.6472 99.8726 24.8832 99.6726 25.1552C99.4806 25.4272 99.3846 25.7312 99.3846 26.0672C99.3846 26.3872 99.4366 26.6632 99.5406 26.8952C99.6446 27.1272 99.7846 27.3192 99.9606 27.4712C100.145 27.6152 100.357 27.7232 100.597 27.7952C100.845 27.8592 101.109 27.8912 101.389 27.8912C101.765 27.8912 102.109 27.8552 102.421 27.7832C102.733 27.7032 103.025 27.5912 103.297 27.4472C103.577 27.3032 103.841 27.1312 104.089 26.9312C104.345 26.7312 104.593 26.5032 104.833 26.2472V23.7272ZM97.9326 18.7592C98.6046 18.1112 99.3286 17.6272 100.105 17.3072C100.881 16.9872 101.741 16.8272 102.685 16.8272C103.365 16.8272 103.969 16.9392 104.497 17.1632C105.025 17.3872 105.469 17.6992 105.829 18.0992C106.189 18.4992 106.461 18.9832 106.645 19.5512C106.829 20.1192 106.921 20.7432 106.921 21.4232V29.1992H105.973C105.765 29.1992 105.605 29.1672 105.493 29.1032C105.381 29.0312 105.293 28.8952 105.229 28.6952L104.989 27.5432C104.669 27.8392 104.357 28.1032 104.053 28.3352C103.749 28.5592 103.429 28.7512 103.093 28.9112C102.757 29.0632 102.397 29.1792 102.013 29.2592C101.637 29.3472 101.217 29.3912 100.753 29.3912C100.281 29.3912 99.8366 29.3272 99.4206 29.1992C99.0046 29.0632 98.6406 28.8632 98.3286 28.5992C98.0246 28.3352 97.7806 28.0032 97.5966 27.6032C97.4206 27.1952 97.3326 26.7152 97.3326 26.1632C97.3326 25.6832 97.4646 25.2232 97.7286 24.7832C97.9926 24.3352 98.4206 23.9392 99.0126 23.5952C99.6046 23.2512 100.377 22.9712 101.329 22.7552C102.281 22.5312 103.449 22.4032 104.833 22.3712V21.4232C104.833 20.4792 104.629 19.7672 104.221 19.2872C103.813 18.7992 103.217 18.5552 102.433 18.5552C101.905 18.5552 101.461 18.6232 101.101 18.7592C100.749 18.8872 100.441 19.0352 100.177 19.2032C99.9206 19.3632 99.6966 19.5112 99.5046 19.6472C99.3206 19.7752 99.1366 19.8392 98.9526 19.8392C98.8086 19.8392 98.6846 19.8032 98.5806 19.7312C98.4766 19.6512 98.3886 19.5552 98.3166 19.4432L97.9326 18.7592Z" fill="#3C3C3C"/>
<ellipse cx="20" cy="19.5" rx="20" ry="19.5" fill="#F46363"/>
<path d="M15.1378 5.21191C18.4137 5.21194 22.2068 5.21189 25.6551 7.22885C30.6416 10.1455 30.9755 16.0902 22.0344 19.5007C14.9832 22.1904 15.1378 23.7033 15.1378 26.0567C15.1378 30.9317 15.1378 31.7723 15.1378 33.7895" stroke="white" stroke-width="1.5" stroke-linecap="round"/>
</svg>
